HIERARCHY
ROOT Hips
{
	OFFSET -0.001795 -0.223333 0.028219
	CHANNELS 6 Xposition Yposition Zposition Zrotation Yrotation Xrotation 
	JOINT LeftUpLeg
	{
		OFFSET 0.069520 -0.091406 -0.006815
		CHANNELS 3 Zrotation Yrotation Xrotation
		JOINT LeftLeg
		{
			OFFSET 0.034277 -0.375199 -0.004496
			CHANNELS 3 Zrotation Yrotation Xrotation
			JOINT LeftFoot
			{
				OFFSET -0.013596 -0.397961 -0.043693
				CHANNELS 3 Zrotation Yrotation Xrotation
				JOINT LeftToe
				{
					OFFSET 0.026358 -0.055791 0.119288
					CHANNELS 3 Zrotation Yrotation Xrotation
					End Site
					{
						OFFSET 0.000000 0.000000 0.000000
					}
				}
			}
		}
	}
	JOINT RightUpLeg
	{
		OFFSET -0.067670 -0.090522 -0.004320
		CHANNELS 3 Zrotation Yrotation Xrotation
		JOINT RightLeg
		{
			OFFSET -0.038290 -0.382569 -0.008850
			CHANNELS 3 Zrotation Yrotation Xrotation
			JOINT RightFoot
			{
				OFFSET 0.015774 -0.398415 -0.042312
				CHANNELS 3 Zrotation Yrotation Xrotation
				JOINT RightToe
				{
					OFFSET -0.025372 -0.048144 0.123348
					CHANNELS 3 Zrotation Yrotation Xrotation
					End Site
					{
						OFFSET 0.000000 0.000000 0.000000
					}
				}
			}
		}
	}
	JOINT Spine
	{
		OFFSET -0.002533 0.108963 -0.026696
		CHANNELS 3 Zrotation Yrotation Xrotation
		JOINT Spine1
		{
			OFFSET 0.005487 0.135180 0.001092
			CHANNELS 3 Zrotation Yrotation Xrotation
			JOINT Spine2
			{
				OFFSET 0.001457 0.052922 0.025425
				CHANNELS 3 Zrotation Yrotation Xrotation
				JOINT Neck
				{
					OFFSET -0.002778 0.213870 -0.042857
					CHANNELS 3 Zrotation Yrotation Xrotation
					JOINT Head
					{
						OFFSET 0.005152 0.064970 0.051349
						CHANNELS 3 Zrotation Yrotation Xrotation
						End Site
						{
							OFFSET 0.000000 0.000000 0.000000
						}
					}
				}
				JOINT LeftShoulder
				{
					OFFSET 0.078845 0.121749 -0.034090
					CHANNELS 3 Zrotation Yrotation Xrotation
					JOINT LeftArm
					{
						OFFSET 0.090977 0.030469 -0.008868
						CHANNELS 3 Zrotation Yrotation Xrotation
						JOINT LeftForeArm
						{
							OFFSET 0.259612 -0.012772 -0.027456
							CHANNELS 3 Zrotation Yrotation Xrotation
							JOINT LeftHand
							{
								OFFSET 0.249234 0.008986 -0.001171
								CHANNELS 3 Zrotation Yrotation Xrotation
								End Site
								{
									OFFSET 0.000000 0.000000 0.000000
								}
							}
						}
					}
				}
				JOINT RightShoulder
				{
					OFFSET -0.081759 0.118833 -0.038615
					CHANNELS 3 Zrotation Yrotation Xrotation
					JOINT RightArm
					{
						OFFSET -0.096012 0.032551 -0.009143
						CHANNELS 3 Zrotation Yrotation Xrotation
						JOINT RightForeArm
						{
							OFFSET -0.253742 -0.013329 -0.021401
							CHANNELS 3 Zrotation Yrotation Xrotation
							JOINT RightHand
							{
								OFFSET -0.255298 0.007772 -0.005559
								CHANNELS 3 Zrotation Yrotation Xrotation
								End Site
								{
									OFFSET 0.000000 0.000000 0.000000
								}
							}
						}
					}
				}
			}
		}
	}
}
MOTION
Frames: 10
Frame Time: 0.050000
0.187883 0.957156 0.159703 -4.973206 -5.542246 8.758469 3.843626 -1.111163 -22.161562 3.559217 -1.007026 10.571226 1.119720 5.750814 11.844148 0.000000 0.000000 0.000000 -0.034805 2.816809 -25.203298 -3.392551 1.913668 19.068857 2.315827 0.435961 8.661374 0.000000 0.000000 0.000000 -0.133646 -0.640439 20.861717 -1.683970 0.804046 0.718075 -10.379785 8.256589 5.504605 11.601277 -6.968636 -8.741564 0.000000 0.000000 0.000000 3.678444 -32.343196 10.281569 -13.979807 -41.492706 0.842177 58.324161 -37.166783 -20.627878 0.000000 0.000000 0.000000 -2.398405 18.059105 6.512294 34.597579 39.231887 7.846275 -66.388063 67.110770 -39.549944 0.000000 0.000000 0.000000 
0.191876 0.956217 0.163961 -5.091372 -6.439191 9.785097 4.134319 -1.032486 -22.500458 2.870972 -0.824456 9.975609 1.675124 6.478943 11.493172 0.000000 0.000000 0.000000 1.319223 3.045956 -24.943990 -5.312896 1.754514 12.789414 4.809011 1.196892 16.226594 0.000000 0.000000 0.000000 0.109102 -0.681490 22.114069 -2.361191 1.148230 1.777125 -12.525085 8.403113 3.967996 12.765043 -7.793655 -8.480072 0.000000 0.000000 0.000000 7.598256 -35.084458 10.450197 -8.401619 -43.723919 -0.849121 57.282192 -28.186480 -15.244631 0.000000 0.000000 0.000000 -6.227839 20.987937 6.896694 27.013512 42.373569 6.632283 -59.511029 52.009906 -25.188829 0.000000 0.000000 0.000000 
0.194036 0.954951 0.167132 -4.944896 -6.876142 10.905606 4.261647 -1.020169 -23.770614 2.163087 -0.690910 10.483947 2.002642 6.916337 11.219069 0.000000 0.000000 0.000000 0.692615 2.929507 -24.737498 -5.024502 1.346584 9.438493 7.233311 2.842072 21.144732 0.000000 0.000000 0.000000 -1.020416 -0.393138 23.932371 -3.054393 1.462249 1.113438 -12.806177 8.797738 3.253805 13.873246 -8.612889 -8.213427 0.000000 0.000000 0.000000 11.501403 -37.445284 10.354920 -3.340611 -45.086738 -2.663232 57.439164 -21.649302 -11.784972 0.000000 0.000000 0.000000 -10.297602 22.530430 6.636286 19.289019 43.451557 4.517943 -54.286772 40.070841 -16.286835 0.000000 0.000000 0.000000 
0.194789 0.954089 0.169417 -4.819172 -6.794794 11.596522 4.759534 -0.952812 -24.648100 0.987535 -0.454881 10.868200 2.053685 6.968652 10.996336 0.000000 0.000000 0.000000 1.032294 3.018359 -25.041147 -6.327081 1.388979 7.722685 10.249377 4.981024 26.425988 0.000000 0.000000 0.000000 -1.740776 -0.194921 25.707682 -3.203454 1.538635 1.524244 -13.599257 8.518375 2.461405 14.350838 -9.269105 -7.051949 0.000000 0.000000 0.000000 14.755132 -38.574468 9.972349 1.211113 -46.671622 -4.465983 58.761306 -16.274061 -9.166080 0.000000 0.000000 0.000000 -13.620876 23.594093 6.321075 12.497646 43.065521 2.386719 -50.741464 31.323118 -11.071133 0.000000 0.000000 0.000000 
0.194807 0.953075 0.171158 -5.177840 -7.205716 12.712877 5.824280 -0.728255 -26.682920 -0.149556 -0.222600 12.681559 2.345482 7.392478 10.864939 0.000000 0.000000 0.000000 1.108277 3.081783 -25.294785 -5.708059 1.150111 6.460457 9.936148 4.756839 25.756268 0.000000 0.000000 0.000000 -2.753413 0.151078 26.852167 -2.893765 1.388711 1.464630 -14.043816 8.946690 2.278466 14.508460 -9.327076 -7.086820 0.000000 0.000000 0.000000 18.526203 -38.462472 9.199247 5.608258 -48.297135 -6.529169 58.532443 -12.253425 -6.989325 0.000000 0.000000 0.000000 -17.432493 23.361019 5.516862 7.316711 43.730448 0.962423 -47.473066 24.726091 -7.484113 0.000000 0.000000 0.000000 
0.194703 0.952002 0.172635 -5.324718 -7.110141 14.369003 6.479079 -0.585923 -29.071662 -0.910132 -0.048877 13.833896 2.384806 7.481407 10.919306 0.000000 0.000000 0.000000 1.485219 3.273366 -26.226310 -6.442284 1.195499 5.884008 9.754131 5.441453 24.013438 0.000000 0.000000 0.000000 -3.111567 0.291531 27.777497 -2.638584 1.251393 0.988325 -14.850550 8.648133 2.263545 14.475312 -9.361378 -6.772183 0.000000 0.000000 0.000000 20.430911 -39.282182 8.977991 9.956090 -48.455267 -8.282287 57.911605 -8.890537 -4.997315 0.000000 0.000000 0.000000 -20.188738 22.794874 4.934205 3.368561 44.153809 -0.227709 -44.485760 21.151539 -5.621912 0.000000 0.000000 0.000000 
0.194172 0.950365 0.173548 -5.445689 -7.279961 15.812210 7.186006 -0.373143 -31.298952 -1.771933 0.177111 15.137699 2.546502 7.742058 10.912474 0.000000 0.000000 0.000000 1.655571 3.494657 -27.462050 -6.291881 1.153276 5.743238 8.892947 4.598267 22.913476 0.000000 0.000000 0.000000 -3.784603 0.575992 28.991040 -2.252892 1.060179 0.454209 -15.314388 8.547266 2.220472 14.235136 -9.302324 -6.278979 0.000000 0.000000 0.000000 21.730263 -39.937020 8.843128 13.590983 -47.841578 -9.565360 56.054114 -5.933145 -3.207498 0.000000 0.000000 0.000000 -21.774849 22.170964 4.590668 0.200604 44.566834 -1.225376 -42.750591 18.939437 -4.591383 0.000000 0.000000 0.000000 
0.192923 0.948424 0.173617 -5.693433 -7.126043 17.223812 7.644603 -0.215413 -33.693549 -1.881768 0.216484 16.648941 2.553638 7.772336 10.855820 0.000000 0.000000 0.000000 1.981011 3.779108 -28.970526 -6.291232 1.221964 6.402022 8.055653 4.171048 21.203623 0.000000 0.000000 0.000000 -4.196221 0.768658 30.319268 -2.206966 1.035632 0.454380 -15.230265 7.946181 2.089205 14.028916 -8.729876 -7.471947 0.000000 0.000000 0.000000 22.918602 -40.797925 8.734726 17.050095 -47.249762 -10.654113 53.105981 -2.982574 -1.455923 0.000000 0.000000 0.000000 -23.394302 21.451173 4.303391 -2.240269 44.897728 -2.066803 -41.268886 18.000565 -4.134417 0.000000 0.000000 0.000000 
0.190537 0.947429 0.173229 -5.705244 -6.826497 18.565211 7.786333 -0.142890 -36.137010 -1.739482 0.181468 18.204869 2.411966 7.650736 11.204152 0.000000 0.000000 0.000000 2.138675 3.963376 -30.074785 -5.830640 1.140167 6.309139 6.595046 2.408286 19.862323 0.000000 0.000000 0.000000 -4.829487 1.040274 31.618707 -1.614672 0.761417 0.118356 -15.631679 7.636177 1.952641 13.786683 -8.290542 -8.200121 0.000000 0.000000 0.000000 23.720547 -41.195976 8.667697 19.457736 -46.889653 -11.481845 49.722796 -1.985222 -0.819162 0.000000 0.000000 0.000000 -24.025184 20.998292 4.199150 -3.262315 45.051846 -2.403693 -41.161265 18.217134 -4.167916 0.000000 0.000000 0.000000 
0.187016 0.946868 0.173067 -5.920201 -6.628530 19.767627 8.088029 -0.019412 -37.950907 -1.396598 0.083709 19.095405 2.314297 7.580047 11.515919 0.000000 0.000000 0.000000 2.683792 4.201121 -30.978283 -6.007619 1.133753 6.015989 6.164354 1.996650 19.241230 0.000000 0.000000 0.000000 -5.456044 1.345861 33.039112 -1.113954 0.536912 0.360186 -15.859367 7.921791 1.436469 14.225023 -8.553173 -8.109779 0.000000 0.000000 0.000000 24.078709 -42.639415 8.897550 20.914375 -45.986009 -11.862041 47.021938 -1.522598 -0.535264 0.000000 0.000000 0.000000 -24.436874 20.725293 4.118967 -3.857174 45.097531 -2.489324 -40.523445 18.603952 -4.142163 0.000000 0.000000 0.000000 
